<svg version="1" xmlns="http://www.w3.org/2000/svg" width="224" height="224" viewBox="0 0 168.000000 168.000000"><path d="M20.7 85L9.2 105h8.3l8-14c4.4-7.7 8.2-14 8.5-14 .3.1 4.1 6.3 8.4 14l7.9 14h8.8l-3.8-6.8C39.4 69.7 36.5 65 34.4 65c-1.7 0-4.4 3.9-13.7 20zM72.5 84.1c-6.1 10.5-11.1 19.5-11.3 20-.2.5 1.4.9 3.6.9h4l7.6-13.5c4.2-7.4 8-13.6 8.4-13.9.4-.2 4.4 5.8 8.7 13.5l8 13.9h4.3c2.4 0 4.2-.4 4-.8-.1-.5-5.2-9.5-11.1-20C89.7 68.4 87.4 65 85.6 65c-1.8 0-4.1 3.4-13.1 19.1zM127 78.2c-4.1 7.3-9.2 16.3-11.4 20.1l-3.8 6.8 4.2-.3 4.2-.3 7.7-13.4c4.3-7.3 8-13.4 8.4-13.5.4 0 4.2 6 8.5 13.4l7.8 13.5 4.2.3c2.3.2 4.2 0 4.2-.5-.1-.4-4.9-9.4-10.9-19.8-8.9-15.7-11.2-19-13.2-19.3-2.1-.2-3.3 1.4-9.9 13z"/></svg>